<svg width="920" height="360" viewBox="0 0 920 360" xmlns="http://www.w3.org/2000/svg" role="img">
<title>Pledges by Region</title>
<rect width="100%" height="100%" fill="#f8fafc"/>
<text x="220" y="42" font-family="Arial" font-size="24" font-weight="700" fill="#0f172a">Pledges by Region</text>
<text x="24" y="106" font-family="Arial" font-size="15" font-weight="600" fill="#334155">Metro Center</text>
<rect x="220" y="84" width="580" height="30" rx="6" fill="#e2e8f0"/>
<rect x="220" y="84" width="580" height="30" rx="6" fill="#2563eb"/>
<text x="818" y="106" font-family="Arial" font-size="15" font-weight="700" fill="#0f172a">85</text>
<text x="24" y="164" font-family="Arial" font-size="15" font-weight="600" fill="#334155">North Transit</text>
<rect x="220" y="142" width="580" height="30" rx="6" fill="#e2e8f0"/>
<rect x="220" y="142" width="470" height="30" rx="6" fill="#2563eb"/>
<text x="818" y="164" font-family="Arial" font-size="15" font-weight="700" fill="#0f172a">69</text>
<text x="24" y="222" font-family="Arial" font-size="15" font-weight="600" fill="#334155">East Residential</text>
<rect x="220" y="200" width="580" height="30" rx="6" fill="#e2e8f0"/>
<rect x="220" y="200" width="395" height="30" rx="6" fill="#2563eb"/>
<text x="818" y="222" font-family="Arial" font-size="15" font-weight="700" fill="#0f172a">58</text>
<text x="24" y="280" font-family="Arial" font-size="15" font-weight="600" fill="#334155">West District</text>
<rect x="220" y="258" width="580" height="30" rx="6" fill="#e2e8f0"/>
<rect x="220" y="258" width="307" height="30" rx="6" fill="#2563eb"/>
<text x="818" y="280" font-family="Arial" font-size="15" font-weight="700" fill="#0f172a">45</text>
</svg>